HIERARCHY
ROOT RootJoint
{
    OFFSET   0.000000   0.000000   0.000000
    CHANNELS 6 Xposition Yposition Zposition Xrotation Yrotation Zrotation
    JOINT lHip
    {
        OFFSET   0.100000  -0.051395   0.000000
        CHANNELS 3 Xrotation Yrotation Zrotation
        JOINT lKnee
        {
            OFFSET   0.000000  -0.410000   0.000000
            CHANNELS 3 Xrotation Yrotation Zrotation
            JOINT lAnkle
            {
                OFFSET   0.000000  -0.390000   0.000000
                CHANNELS 3 Xrotation Yrotation Zrotation
                JOINT lToeJoint
                {
                    OFFSET   0.000000  -0.050000   0.130000
                    CHANNELS 3 Xrotation Yrotation Zrotation
                    End Site
                    {
                        OFFSET   0.010000   0.002000   0.060000
                    }
                }
            }
        }
    }
    JOINT rHip
    {
        OFFSET  -0.100000  -0.051395   0.000000
        CHANNELS 3 Xrotation Yrotation Zrotation
        JOINT rKnee
        {
            OFFSET   0.000000  -0.410000   0.000000
            CHANNELS 3 Xrotation Yrotation Zrotation
            JOINT rAnkle
            {
                OFFSET   0.000000  -0.390000   0.000000
                CHANNELS 3 Xrotation Yrotation Zrotation
                JOINT rToeJoint
                {
                    OFFSET   0.000000  -0.050000   0.130000
                    CHANNELS 3 Xrotation Yrotation Zrotation
                    End Site
                    {
                        OFFSET  -0.010000   0.002000   0.060000
                    }
                }
            }
        }
    }
    JOINT pelvis_lowerback
    {
        OFFSET   0.000000   0.093605   0.000000
        CHANNELS 3 Xrotation Yrotation Zrotation
        JOINT lowerback_torso
        {
            OFFSET   0.000000   0.100000   0.000000
            CHANNELS 3 Xrotation Yrotation Zrotation
            JOINT torso_head
            {
                OFFSET   0.000000   0.282350   0.000000
                CHANNELS 3 Xrotation Yrotation Zrotation
                End Site
                {
                    OFFSET   0.000000   0.192650   0.000000
                }
            }
            JOINT lTorso_Clavicle
            {
                OFFSET   0.001000   0.157500   0.000000
                CHANNELS 3 Xrotation Yrotation Zrotation
                JOINT lShoulder
                {
                    OFFSET   0.117647   0.000000   0.000000
                    CHANNELS 3 Xrotation Yrotation Zrotation
                    JOINT lElbow
                    {
                        OFFSET   0.245000   0.000000   0.000000
                        CHANNELS 3 Xrotation Yrotation Zrotation
                        JOINT lWrist
                        {
                            OFFSET   0.240000   0.000000   0.000000
                            CHANNELS 3 Xrotation Yrotation Zrotation
                            End Site
                            {
                                OFFSET   0.116353  -0.002500   0.000000
                            }
                        }
                    }
                }
            }
            JOINT rTorso_Clavicle
            {
                OFFSET  -0.001000   0.157500   0.000000
                CHANNELS 3 Xrotation Yrotation Zrotation
                JOINT rShoulder
                {
                    OFFSET  -0.117647   0.000000   0.000000
                    CHANNELS 3 Xrotation Yrotation Zrotation
                    JOINT rElbow
                    {
                        OFFSET  -0.245000   0.000000   0.000000
                        CHANNELS 3 Xrotation Yrotation Zrotation
                        JOINT rWrist
                        {
                            OFFSET  -0.240000   0.000000   0.000000
                            CHANNELS 3 Xrotation Yrotation Zrotation
                            End Site
                            {
                                OFFSET  -0.116353  -0.002500   0.000000
                            }
                        }
                    }
                }
            }
        }
    }
}
MOTION
Frames: 17
Frame Time:   0.010000
 -2.602674   0.881105   4.601007  -3.455797  -6.339307  -5.500597 -30.983874   9.264431   4.734558  42.376922   1.709967   7.128801  -2.906830   0.716730  -3.127679   0.000002   0.000018  -0.000001   1.128322  -9.963452  11.661662  17.691494   0.607123  -6.921612 -10.106514   0.462090  -0.511724   0.000000  -0.000001  -0.000001   1.692603   0.872002   1.223887   6.606833   3.579008   4.902059   8.884708   3.985693  -4.313300   0.168611   0.185542 -18.120024  18.428702 -30.806623 -49.421643   0.454321 -20.747375   4.281013   2.465602   2.834484  -4.873155  -1.317425   3.586864  18.791950  19.332598  28.936196  43.556616  -0.737123  24.732720  -4.885396   5.692907   1.102190  -2.885727
 -2.603741   0.879910   4.614142  -3.445384  -6.367855  -5.392162 -30.730212   9.731483   4.538513  38.714818   1.226653   6.717548  -2.703449   0.632832  -3.968209   0.000002   0.000017   0.000000   1.731853 -10.119885  11.622444  18.211602   0.435423  -7.155312 -10.450744   0.278650  -0.218435  -0.000001   0.000001  -0.000001   1.659887   0.922448   1.174271   6.475278   3.773480   4.703697   8.934393   3.941057  -4.199613   0.165612   0.142174 -18.071060  18.260419 -30.343175 -50.114696   0.371058 -18.917519   3.704207   2.640769   3.288700  -5.191487  -1.311795   3.529054  18.771080  19.224600  28.638853  43.385281  -0.778461  25.528706  -4.974024   5.576344   1.206661  -3.133973
 -2.604808   0.878714   4.627277  -3.434915  -6.396382  -5.283716 -30.474564  10.197672   4.340088  35.049865   0.770597   6.276322  -2.501325   0.545960  -4.808423   0.000002   0.000015   0.000000   2.335573 -10.276716  11.584884  18.730995   0.261611  -7.387439 -10.794027   0.093454   0.073744  -0.000001   0.000003  -0.000001   1.627215   0.972922   1.124683   6.344369   3.968404   4.505737   8.984164   3.896519  -4.085894   0.162649   0.098803 -18.022099  18.099402 -29.878014 -50.802928   0.307928 -17.086971   3.136141   2.818548   3.741934  -5.511363  -1.306187   3.471242  18.750216  19.115896  28.341794  43.213791  -0.818704  26.324750  -5.062611   5.460230   1.311635  -3.382015
 -2.605874   0.877519   4.640412  -3.424392  -6.424891  -5.175259 -30.216892  10.662980   4.139251  31.381788   0.343685   5.806879  -2.300498   0.456135  -5.648313   0.000002   0.000014   0.000001   2.939490 -10.433927  11.548988  19.249676   0.085703  -7.617980 -11.136361  -0.093488   0.364807  -0.000002   0.000005  -0.000001   1.594586   1.023425   1.075124   6.214105   4.163778   4.308176   9.034021   3.852080  -3.972142   0.159724   0.055430 -17.973140  17.945554 -29.411219 -51.486477   0.264192 -15.255921   2.575405   2.998959   4.194169  -5.832824  -1.300600   3.413428  18.729360  19.006486  28.045022  43.042138  -0.857848  27.120848  -5.151192   5.344566   1.417110  -3.629855
 -2.606777   0.876578   4.652535  -3.511206  -6.394830  -4.839135 -29.792710  11.279034   3.651633  28.665251   0.105682   5.525341  -0.831368   0.238447  -4.993625   0.000002   0.000012   0.000001   3.203208 -10.658260  11.172204  20.348433  -0.178444  -7.744659 -11.101747  -0.313237   0.579938  -0.000002   0.000005  -0.000001   1.589080   1.028291   0.980223   6.204570   4.178883   3.928568   9.079371   3.941284  -3.860271   0.157797   0.019232 -17.989725  17.691215 -28.819389 -52.126491   0.207197 -13.409545   2.028797   3.023457   4.648847  -6.199385  -1.300997   3.389975  18.749804  19.023446  27.890050  42.727527  -0.900329  27.926701  -5.253335   5.397783   1.560818  -3.945972
 -2.607597   0.875764   4.664152  -3.647082  -6.336375  -4.389109 -29.278450  11.966145   3.014938  26.425188  -0.042141   5.341774   1.277598   0.000890  -3.583883   0.000003   0.000009   0.000000   3.294732 -10.916754  10.624387  21.737165  -0.487469  -7.813713 -10.878363  -0.548235   0.758243  -0.000001   0.000003  -0.000001   1.597092   1.010316   0.862644   6.254664   4.103361   3.457896   9.122195   4.097345  -3.749431   0.156333  -0.013376 -18.039081  17.392545 -28.163189 -52.739752   0.152592 -11.555155   1.492278   2.971676   5.105384  -6.587818  -1.304375   3.383701  18.790895  19.103238  27.805483  42.341855  -0.943666  28.737475  -5.362350   5.536126   1.722772  -4.296642
 -2.608418   0.874950   4.675769  -3.783401  -6.278983  -3.938994 -28.755055  12.647580   2.370288  24.184653  -0.182676   5.152569   3.391781  -0.184560  -2.166345   0.000003   0.000007  -0.000001   3.383813 -11.176096  10.076507  23.125609  -0.798076  -7.875261 -10.654237  -0.782535   0.937471   0.000000   0.000001  -0.000001   1.605066   0.992325   0.745069   6.304129   4.027432   2.987335   9.164724   4.253489  -3.638687   0.154841  -0.045983 -18.088438  17.103615 -27.504234 -53.345444   0.115933  -9.700348   0.960801   2.922967   5.562261  -6.976125  -1.307749   3.377425  18.831986  19.182323  27.720443  41.956616  -0.985574  29.548320  -5.471523   5.675471   1.883876  -4.647734
 -2.609079   0.873670   4.686944  -3.974607  -6.138344  -3.431789 -28.217189  13.118186   1.577357  22.972770  -0.223038   5.152295   4.866259  -0.280195  -0.657342   0.000003   0.000006  -0.000001   3.159610 -11.513207   9.347724  25.116331  -1.021046  -7.870109 -10.170760  -0.940099   1.191510   0.000000   0.000002  -0.000001   1.628010   0.948018   0.617962   6.416447   3.846872   2.478750   9.235132   4.457159  -3.543411   0.153543  -0.079656 -18.172251  16.866492 -26.904144 -53.834335   0.083608  -7.918818   0.440252   2.880776   6.043433  -7.482510  -1.309961   3.370165  18.861164  19.227843  27.685010  41.580376  -1.022346  30.278535  -5.592123   5.927914   2.046874  -5.007855
 -2.609423   0.871458   4.697236  -4.276985  -5.831606  -2.809700 -27.665032  13.170098   0.500867  23.818307  -0.071730   5.537383   5.054505  -0.279916   1.024417   0.000003   0.000004  -0.000002   2.305635 -11.993869   8.251098  28.312065  -1.061655  -7.742534  -9.169808  -0.940682   1.593657  -0.000002   0.000006  -0.000002   1.680789   0.851018   0.471851   6.652794   3.456114   1.895188   9.361599   4.755840  -3.479341   0.152615  -0.115464 -18.324973  16.719148 -26.425805 -54.100175   0.040429  -6.284019  -0.062889   2.851081   6.572936  -8.225484  -1.309859   3.360942  18.866520  19.207710  27.749647  41.221285  -1.050264  30.847418  -5.735579   6.405659   2.212990  -5.386282
 -2.609767   0.869245   4.707527  -4.582531  -5.528155  -2.186322 -27.111864  13.211895  -0.576294  24.662810   0.085241   5.920196   5.242662  -0.274113   2.706166   0.000003   0.000003  -0.000002   1.440868 -12.458374   7.145297  31.507920  -1.095089  -7.612892  -8.168878  -0.934240   1.995753  -0.000004   0.000011  -0.000002   1.733318   0.753883   0.325832   6.885050   3.062977   1.313472   9.487787   5.054661  -3.415904   0.151592  -0.151269 -18.477697  16.574877 -25.946864 -54.363556   0.011771  -4.648907  -0.563421   2.828274   7.102777  -8.969006  -1.309757   3.351719  18.871875  19.188024  27.814394  40.862007  -1.076681  31.416360  -5.879573   6.884546   2.375943  -5.766125
 -2.610110   0.867032   4.717818  -4.891223  -5.228033  -1.561638 -26.557904  13.243558  -1.653981  25.506251   0.247834   6.300657   5.430568  -0.262791   4.387886   0.000003   0.000002  -0.000003   0.565516 -12.906415   6.030447  34.703875  -1.121245  -7.481586  -7.168020  -0.920776   2.397674  -0.000005   0.000016  -0.000003   1.785599   0.656615   0.179906   7.113219   2.667510   0.733557   9.613703   5.353621  -3.353098   0.150473  -0.187071 -18.630422  16.433626 -25.467335 -54.624542  -0.002529  -3.013609  -1.062179   2.812379   7.632867  -9.713205  -1.309653   3.342496  18.877231  19.168785  27.879250  40.502539  -1.101574  31.985357  -6.024144   7.364562   2.535714  -6.147364
 -2.610579   0.864897   4.729151  -5.300431  -4.689629  -1.113557 -26.009761  12.374069  -2.624410  26.921895   0.742152   6.649131   4.257338   0.016537   3.973315   0.000002   0.000004  -0.000002  -0.877273 -13.285076   4.705814  38.841331  -0.491341  -7.187363  -4.445506  -0.432240   3.234418  -0.000003   0.000013  -0.000001   1.849851   0.549304   0.063866   7.384410   2.232802   0.275010   9.797355   5.617061  -3.337804   0.145885  -0.271888 -18.748307  16.633049 -25.479780 -54.496717  -0.027381  -2.086250  -1.459728   3.231780   8.306619 -10.902947  -1.298617   3.224504  18.839474  18.773599  27.781523  40.549484  -1.113990  32.295907  -6.148264   7.975495   2.640520  -6.524364
 -2.611048   0.862762   4.740485  -5.713552  -4.154443  -0.661956 -25.478486  11.495706  -3.583183  28.334720   1.244919   6.985336   3.086143   0.304287   3.564544   0.000001   0.000005  -0.000001  -2.330867 -13.631007   3.369787  42.975367   0.158139  -6.939363  -1.730484   0.095433   4.046993   0.000000   0.000009   0.000001   1.913885   0.441863  -0.052053   7.652039   1.795945  -0.181350   9.981022   5.880548  -3.323352   0.141123  -0.356696 -18.866199  16.832522 -25.491824 -54.368832  -0.045786  -1.158742  -1.856691   3.665998   8.971575 -12.099762  -1.287660   3.106505  18.801745  18.378858  27.683512  40.595625  -1.125651  32.606478  -6.272732   8.587157   2.741302  -6.902492
 -2.611518   0.860627   4.751818  -6.130625  -3.622533  -0.206787 -24.963834  10.608818  -4.530749  29.744896   1.755814   7.309115   1.916983   0.600326   3.161724   0.000000   0.000007   0.000000  -3.794425 -13.943752   2.023264  47.106963   0.823804  -6.738808   0.976957   0.660952   4.833712   0.000002   0.000006   0.000003   1.977701   0.334293  -0.167849   7.916123   1.356977  -0.635568  10.164710   6.144080  -3.309742   0.136185  -0.441493 -18.984100  17.032045 -25.503465 -54.240888  -0.057761  -0.231128  -2.253280   4.115027   9.627392 -13.303915  -1.276781   2.988498  18.764042  17.984561  27.585222  40.640962  -1.136548  32.917071  -6.397560   9.199523   2.838043  -7.281708
 -2.612305   0.859253   4.763210  -6.451167  -3.083019   0.176920 -24.419333   9.652770  -5.286530  30.848154   2.215959   7.369455   0.874769   0.854613   2.846959  -0.000001   0.000007   0.000000  -5.349108 -13.929247   0.617836  50.897778   1.560229  -6.350169   2.774898   1.322197   5.774610   0.000002   0.000004   0.000003   2.018514   0.275394  -0.271374   8.085756   1.112268  -1.043773  10.337872   6.351112  -3.333643   0.130548  -0.528618 -19.010309  17.365913 -25.781923 -53.940981  -0.063781   0.071796  -2.497447   4.921663  10.176834 -14.531177  -1.265492   2.823231  18.754928  17.427945  27.245345  40.939713  -1.144600  33.122191  -6.472828   9.648674   2.884367  -7.648958
 -2.613253   0.858261   4.774631  -6.724757  -2.539971   0.525704 -23.865402   8.659618  -5.940273  31.799466   2.647131   7.296264  -0.103783   1.089157   2.577500  -0.000002   0.000006   0.000000  -6.941262 -13.730124  -0.808443  54.514509   2.352633  -5.892364   4.110456   2.038915   6.788099   0.000002   0.000001   0.000002   2.047849   0.240831  -0.368787   8.208511   0.964692  -1.429395  10.505921   6.529775  -3.376470   0.124644  -0.616911 -18.990678  17.770679 -26.191877 -53.551314  -0.068986   0.062366  -2.665477   5.912423  10.658713 -15.776218  -1.253958   2.634337  18.760131  16.795412  26.781294  41.359180  -1.151363  33.274573  -6.523249  10.016107   2.904906  -8.009994
 -2.614200   0.857269   4.786052  -7.001548  -1.998602   0.876949 -23.324319   7.660344  -6.582671  32.751687   3.077029   7.215887  -1.081306   1.328265   2.312064  -0.000003   0.000006  -0.000001  -8.526359 -13.492681  -2.227169  58.127246   3.172306  -5.485222   5.433830   2.778944   7.785131   0.000001  -0.000001   0.000001   2.077126   0.206219  -0.466183   8.330264   0.816293  -1.814684  10.674166   6.708313  -3.419840   0.118769  -0.705206 -18.971055  18.179989 -26.599332 -53.157035  -0.074218   0.052950  -2.833508   6.915187  11.119217 -17.031534  -1.242408   2.445444  18.765371  16.169252  26.313168  41.771204  -1.157976  33.426960  -6.573737  10.383670   2.923132  -8.371160
